<svg xmlns="http://www.w3.org/2000/svg" width="256" height="256" viewBox="0 0 256 256">
  <title>Artboard 4</title>
  <rect x="6.33" y="14.67" width="115.33" height="172.67" fill="gray" stroke="#000" stroke-miterlimit="10"/>
  <rect x="130.33" y="14.67" width="115.33" height="172.67" fill="gray" stroke="#000" stroke-miterlimit="10"/>
  <text transform="translate(42.36 215.18)" font-size="24" fill="#0071bc" font-family="MyriadPro-Regular, Myriad Pro">CPU</text>
  <text transform="translate(167.17 215.18)" font-size="24" fill="#22b573" font-family="MyriadPro-Regular, Myriad Pro">GPU</text>
  <text transform="translate(17.36 231.53) rotate(-0.03)" font-size="12" fill="#0071bc" font-family="MyriadPro-Regular, Myriad Pro"><tspan letter-spacing="-0.01em">f</tspan><tspan x="3.35" y="0" letter-spacing="0em">ew of good </tspan><tspan x="62.57" y="0" letter-spacing="-0.01em">c</tspan><tspan x="67.87" y="0">o</tspan><tspan x="74.46" y="0" letter-spacing="-0.01em">r</tspan><tspan x="78.26" y="0" letter-spacing="0em">es</tspan></text>
  <text transform="translate(144.83 231.53) rotate(-0.03)" font-size="12" fill="#22b573" font-family="MyriadPro-Regular, Myriad Pro">A lot of poor <tspan x="64.93" y="0" letter-spacing="-0.01em">c</tspan><tspan x="70.24" y="0">o</tspan><tspan x="76.82" y="0" letter-spacing="-0.01em">r</tspan><tspan x="80.63" y="0">es</tspan></text>
  <rect x="13.67" y="22.67" width="47.33" height="73.33" fill="#0071bc"/>
  <rect x="66" y="22.67" width="47.33" height="73.33" fill="#0071bc"/>
  <rect x="13.67" y="103.67" width="47.33" height="73.33" fill="#0071bc"/>
  <rect x="66" y="103.67" width="47.33" height="73.33" fill="#0071bc"/>
  <g>
    <rect x="136" y="22.67" width="6" height="11.33" fill="#22b573"/>
    <rect x="143" y="22.67" width="6" height="11.33" fill="#22b573"/>
    <rect x="150" y="22.67" width="6" height="11.33" fill="#22b573"/>
    <rect x="157" y="22.67" width="6" height="11.33" fill="#22b573"/>
    <rect x="164" y="22.67" width="6" height="11.33" fill="#22b573"/>
    <rect x="171" y="22.67" width="6" height="11.33" fill="#22b573"/>
    <rect x="178" y="22.67" width="6" height="11.33" fill="#22b573"/>
    <rect x="185" y="22.67" width="6" height="11.33" fill="#22b573"/>
    <rect x="192" y="22.67" width="6" height="11.33" fill="#22b573"/>
    <rect x="199" y="22.67" width="6" height="11.33" fill="#22b573"/>
    <rect x="206" y="22.67" width="6" height="11.33" fill="#22b573"/>
    <rect x="213" y="22.67" width="6" height="11.33" fill="#22b573"/>
    <rect x="220" y="22.67" width="6" height="11.33" fill="#22b573"/>
    <rect x="227" y="22.67" width="6" height="11.33" fill="#22b573"/>
    <rect x="234" y="22.67" width="6" height="11.33" fill="#22b573"/>
    <rect x="136" y="35.67" width="6" height="11.33" fill="#22b573"/>
    <rect x="143" y="35.67" width="6" height="11.33" fill="#22b573"/>
    <rect x="150" y="35.67" width="6" height="11.33" fill="#22b573"/>
    <rect x="157" y="35.67" width="6" height="11.33" fill="#22b573"/>
    <rect x="164" y="35.67" width="6" height="11.33" fill="#22b573"/>
    <rect x="171" y="35.67" width="6" height="11.33" fill="#22b573"/>
    <rect x="178" y="35.67" width="6" height="11.33" fill="#22b573"/>
    <rect x="185" y="35.67" width="6" height="11.33" fill="#22b573"/>
    <rect x="192" y="35.67" width="6" height="11.33" fill="#22b573"/>
    <rect x="199" y="35.67" width="6" height="11.33" fill="#22b573"/>
    <rect x="206" y="35.67" width="6" height="11.33" fill="#22b573"/>
    <rect x="213" y="35.67" width="6" height="11.33" fill="#22b573"/>
    <rect x="220" y="35.67" width="6" height="11.33" fill="#22b573"/>
    <rect x="227" y="35.67" width="6" height="11.33" fill="#22b573"/>
    <rect x="234" y="35.67" width="6" height="11.33" fill="#22b573"/>
    <rect x="136" y="48.67" width="6" height="11.33" fill="#22b573"/>
    <rect x="143" y="48.67" width="6" height="11.33" fill="#22b573"/>
    <rect x="150" y="48.67" width="6" height="11.33" fill="#22b573"/>
    <rect x="157" y="48.67" width="6" height="11.33" fill="#22b573"/>
    <rect x="164" y="48.67" width="6" height="11.33" fill="#22b573"/>
    <rect x="171" y="48.67" width="6" height="11.33" fill="#22b573"/>
    <rect x="178" y="48.67" width="6" height="11.33" fill="#22b573"/>
    <rect x="185" y="48.67" width="6" height="11.33" fill="#22b573"/>
    <rect x="192" y="48.67" width="6" height="11.33" fill="#22b573"/>
    <rect x="199" y="48.67" width="6" height="11.33" fill="#22b573"/>
    <rect x="206" y="48.67" width="6" height="11.33" fill="#22b573"/>
    <rect x="213" y="48.67" width="6" height="11.33" fill="#22b573"/>
    <rect x="220" y="48.67" width="6" height="11.33" fill="#22b573"/>
    <rect x="227" y="48.67" width="6" height="11.33" fill="#22b573"/>
    <rect x="234" y="48.67" width="6" height="11.33" fill="#22b573"/>
    <rect x="136" y="61.67" width="6" height="11.33" fill="#22b573"/>
    <rect x="143" y="61.67" width="6" height="11.33" fill="#22b573"/>
    <rect x="150" y="61.67" width="6" height="11.33" fill="#22b573"/>
    <rect x="157" y="61.67" width="6" height="11.33" fill="#22b573"/>
    <rect x="164" y="61.67" width="6" height="11.33" fill="#22b573"/>
    <rect x="171" y="61.67" width="6" height="11.33" fill="#22b573"/>
    <rect x="178" y="61.67" width="6" height="11.33" fill="#22b573"/>
    <rect x="185" y="61.67" width="6" height="11.33" fill="#22b573"/>
    <rect x="192" y="61.67" width="6" height="11.33" fill="#22b573"/>
    <rect x="199" y="61.67" width="6" height="11.33" fill="#22b573"/>
    <rect x="206" y="61.67" width="6" height="11.33" fill="#22b573"/>
    <rect x="213" y="61.67" width="6" height="11.33" fill="#22b573"/>
    <rect x="220" y="61.67" width="6" height="11.33" fill="#22b573"/>
    <rect x="227" y="61.67" width="6" height="11.33" fill="#22b573"/>
    <rect x="234" y="61.67" width="6" height="11.33" fill="#22b573"/>
    <rect x="136" y="74.67" width="6" height="11.33" fill="#22b573"/>
    <rect x="143" y="74.67" width="6" height="11.33" fill="#22b573"/>
    <rect x="150" y="74.67" width="6" height="11.33" fill="#22b573"/>
    <rect x="157" y="74.67" width="6" height="11.33" fill="#22b573"/>
    <rect x="164" y="74.67" width="6" height="11.33" fill="#22b573"/>
    <rect x="171" y="74.67" width="6" height="11.33" fill="#22b573"/>
    <rect x="178" y="74.67" width="6" height="11.33" fill="#22b573"/>
    <rect x="185" y="74.67" width="6" height="11.33" fill="#22b573"/>
    <rect x="192" y="74.67" width="6" height="11.33" fill="#22b573"/>
    <rect x="199" y="74.67" width="6" height="11.33" fill="#22b573"/>
    <rect x="206" y="74.67" width="6" height="11.33" fill="#22b573"/>
    <rect x="213" y="74.67" width="6" height="11.33" fill="#22b573"/>
    <rect x="220" y="74.67" width="6" height="11.33" fill="#22b573"/>
    <rect x="227" y="74.67" width="6" height="11.33" fill="#22b573"/>
    <rect x="234" y="74.67" width="6" height="11.33" fill="#22b573"/>
    <rect x="136" y="87.67" width="6" height="11.33" fill="#22b573"/>
    <rect x="143" y="87.67" width="6" height="11.33" fill="#22b573"/>
    <rect x="150" y="87.67" width="6" height="11.33" fill="#22b573"/>
    <rect x="157" y="87.67" width="6" height="11.33" fill="#22b573"/>
    <rect x="164" y="87.67" width="6" height="11.33" fill="#22b573"/>
    <rect x="171" y="87.67" width="6" height="11.33" fill="#22b573"/>
    <rect x="178" y="87.67" width="6" height="11.33" fill="#22b573"/>
    <rect x="185" y="87.67" width="6" height="11.33" fill="#22b573"/>
    <rect x="192" y="87.67" width="6" height="11.33" fill="#22b573"/>
    <rect x="199" y="87.67" width="6" height="11.33" fill="#22b573"/>
    <rect x="206" y="87.67" width="6" height="11.33" fill="#22b573"/>
    <rect x="213" y="87.67" width="6" height="11.33" fill="#22b573"/>
    <rect x="220" y="87.67" width="6" height="11.33" fill="#22b573"/>
    <rect x="227" y="87.67" width="6" height="11.33" fill="#22b573"/>
    <rect x="234" y="87.67" width="6" height="11.33" fill="#22b573"/>
    <rect x="136" y="100.67" width="6" height="11.33" fill="#22b573"/>
    <rect x="143" y="100.67" width="6" height="11.33" fill="#22b573"/>
    <rect x="150" y="100.67" width="6" height="11.33" fill="#22b573"/>
    <rect x="157" y="100.67" width="6" height="11.33" fill="#22b573"/>
    <rect x="164" y="100.67" width="6" height="11.33" fill="#22b573"/>
    <rect x="171" y="100.67" width="6" height="11.33" fill="#22b573"/>
    <rect x="178" y="100.67" width="6" height="11.33" fill="#22b573"/>
    <rect x="185" y="100.67" width="6" height="11.33" fill="#22b573"/>
    <rect x="192" y="100.67" width="6" height="11.33" fill="#22b573"/>
    <rect x="199" y="100.67" width="6" height="11.33" fill="#22b573"/>
    <rect x="206" y="100.67" width="6" height="11.33" fill="#22b573"/>
    <rect x="213" y="100.67" width="6" height="11.33" fill="#22b573"/>
    <rect x="220" y="100.67" width="6" height="11.33" fill="#22b573"/>
    <rect x="227" y="100.67" width="6" height="11.33" fill="#22b573"/>
    <rect x="234" y="100.67" width="6" height="11.33" fill="#22b573"/>
    <rect x="136" y="113.67" width="6" height="11.33" fill="#22b573"/>
    <rect x="143" y="113.67" width="6" height="11.33" fill="#22b573"/>
    <rect x="150" y="113.67" width="6" height="11.33" fill="#22b573"/>
    <rect x="157" y="113.67" width="6" height="11.33" fill="#22b573"/>
    <rect x="164" y="113.67" width="6" height="11.33" fill="#22b573"/>
    <rect x="171" y="113.67" width="6" height="11.33" fill="#22b573"/>
    <rect x="178" y="113.67" width="6" height="11.33" fill="#22b573"/>
    <rect x="185" y="113.67" width="6" height="11.33" fill="#22b573"/>
    <rect x="192" y="113.67" width="6" height="11.33" fill="#22b573"/>
    <rect x="199" y="113.67" width="6" height="11.33" fill="#22b573"/>
    <rect x="206" y="113.67" width="6" height="11.33" fill="#22b573"/>
    <rect x="213" y="113.67" width="6" height="11.33" fill="#22b573"/>
    <rect x="220" y="113.67" width="6" height="11.33" fill="#22b573"/>
    <rect x="227" y="113.67" width="6" height="11.33" fill="#22b573"/>
    <rect x="234" y="113.67" width="6" height="11.33" fill="#22b573"/>
    <rect x="136" y="126.67" width="6" height="11.33" fill="#22b573"/>
    <rect x="143" y="126.67" width="6" height="11.33" fill="#22b573"/>
    <rect x="150" y="126.67" width="6" height="11.33" fill="#22b573"/>
    <rect x="157" y="126.67" width="6" height="11.33" fill="#22b573"/>
    <rect x="164" y="126.67" width="6" height="11.33" fill="#22b573"/>
    <rect x="171" y="126.67" width="6" height="11.33" fill="#22b573"/>
    <rect x="178" y="126.67" width="6" height="11.33" fill="#22b573"/>
    <rect x="185" y="126.67" width="6" height="11.33" fill="#22b573"/>
    <rect x="192" y="126.67" width="6" height="11.33" fill="#22b573"/>
    <rect x="199" y="126.67" width="6" height="11.33" fill="#22b573"/>
    <rect x="206" y="126.67" width="6" height="11.33" fill="#22b573"/>
    <rect x="213" y="126.67" width="6" height="11.33" fill="#22b573"/>
    <rect x="220" y="126.67" width="6" height="11.33" fill="#22b573"/>
    <rect x="227" y="126.67" width="6" height="11.33" fill="#22b573"/>
    <rect x="234" y="126.67" width="6" height="11.33" fill="#22b573"/>
    <rect x="136" y="139.67" width="6" height="11.33" fill="#22b573"/>
    <rect x="143" y="139.67" width="6" height="11.33" fill="#22b573"/>
    <rect x="150" y="139.67" width="6" height="11.33" fill="#22b573"/>
    <rect x="157" y="139.67" width="6" height="11.33" fill="#22b573"/>
    <rect x="164" y="139.67" width="6" height="11.33" fill="#22b573"/>
    <rect x="171" y="139.67" width="6" height="11.33" fill="#22b573"/>
    <rect x="178" y="139.67" width="6" height="11.33" fill="#22b573"/>
    <rect x="185" y="139.67" width="6" height="11.33" fill="#22b573"/>
    <rect x="192" y="139.67" width="6" height="11.33" fill="#22b573"/>
    <rect x="199" y="139.67" width="6" height="11.33" fill="#22b573"/>
    <rect x="206" y="139.67" width="6" height="11.33" fill="#22b573"/>
    <rect x="213" y="139.67" width="6" height="11.33" fill="#22b573"/>
    <rect x="220" y="139.67" width="6" height="11.33" fill="#22b573"/>
    <rect x="227" y="139.67" width="6" height="11.33" fill="#22b573"/>
    <rect x="234" y="139.67" width="6" height="11.33" fill="#22b573"/>
    <rect x="136" y="152.67" width="6" height="11.33" fill="#22b573"/>
    <rect x="143" y="152.67" width="6" height="11.33" fill="#22b573"/>
    <rect x="150" y="152.67" width="6" height="11.33" fill="#22b573"/>
    <rect x="157" y="152.67" width="6" height="11.33" fill="#22b573"/>
    <rect x="164" y="152.67" width="6" height="11.33" fill="#22b573"/>
    <rect x="171" y="152.67" width="6" height="11.33" fill="#22b573"/>
    <rect x="178" y="152.67" width="6" height="11.33" fill="#22b573"/>
    <rect x="185" y="152.67" width="6" height="11.33" fill="#22b573"/>
    <rect x="192" y="152.67" width="6" height="11.33" fill="#22b573"/>
    <rect x="199" y="152.67" width="6" height="11.33" fill="#22b573"/>
    <rect x="206" y="152.67" width="6" height="11.33" fill="#22b573"/>
    <rect x="213" y="152.67" width="6" height="11.33" fill="#22b573"/>
    <rect x="220" y="152.67" width="6" height="11.33" fill="#22b573"/>
    <rect x="227" y="152.67" width="6" height="11.33" fill="#22b573"/>
    <rect x="234" y="152.67" width="6" height="11.33" fill="#22b573"/>
    <rect x="136" y="165.67" width="6" height="11.33" fill="#22b573"/>
    <rect x="143" y="165.67" width="6" height="11.33" fill="#22b573"/>
    <rect x="150" y="165.67" width="6" height="11.33" fill="#22b573"/>
    <rect x="157" y="165.67" width="6" height="11.33" fill="#22b573"/>
    <rect x="164" y="165.67" width="6" height="11.33" fill="#22b573"/>
    <rect x="171" y="165.67" width="6" height="11.33" fill="#22b573"/>
    <rect x="178" y="165.67" width="6" height="11.33" fill="#22b573"/>
    <rect x="185" y="165.67" width="6" height="11.33" fill="#22b573"/>
    <rect x="192" y="165.67" width="6" height="11.33" fill="#22b573"/>
    <rect x="199" y="165.67" width="6" height="11.33" fill="#22b573"/>
    <rect x="206" y="165.67" width="6" height="11.33" fill="#22b573"/>
    <rect x="213" y="165.67" width="6" height="11.33" fill="#22b573"/>
    <rect x="220" y="165.67" width="6" height="11.33" fill="#22b573"/>
    <rect x="227" y="165.67" width="6" height="11.33" fill="#22b573"/>
    <rect x="234" y="165.67" width="6" height="11.33" fill="#22b573"/>
  </g>
</svg>
