<?xml version="1.0" encoding="utf-8"?>
<!-- Generator: Adobe Illustrator 19.2.1, SVG Export Plug-In . SVG Version: 6.00 Build 0)  -->
<svg version="1.1" id="グループ化_1_" xmlns="http://www.w3.org/2000/svg" xmlns:xlink="http://www.w3.org/1999/xlink" x="0px"
	 y="0px" viewBox="0 0 1024 1024" style="enable-background:new 0 0 1024 1024;" xml:space="preserve">
<style type="text/css">
	.st0{fill:#492DA4;}
	.st1{fill:#3A2388;}
	.st2{fill:#603CC0;}
	.st3{fill:#150E4C;}
	.st4{fill:#27215B;}
	.st5{fill:#140D4B;}
	.st6{fill:#1C1651;}
	.st7{fill:#971F57;}
	.st8{fill:#9C2A5F;}
</style>
<g id="シェイプ_xA0_画像_1_">
	<g>
		<path class="st0" d="M648,156c2.7,0,5.3,0,8,0c5.5,2.6,8.8,7,11.7,12.2c40.4,73.7,80.9,147.3,121.3,220.9
			c15.5,28.1,31,56.2,46.4,84.4c5.4,9.8,1.6,19.8-8.4,22.9c-5.7,1.8-10.3-0.5-14.9-3.7C753.1,450.9,694,409,634.9,367.1
			c-9.3-6.6-9.2-6.5-17.5,1.6c-2.4,2.4-2.8,4.1-1.3,7.2c41.4,82.5,82.6,165,123.8,247.6c1.3,2.6,2.9,3.7,5.6,4.2
			c11,2,21.9,4,32.8,6.3c38,8.1,75.3,18.2,110.6,34.8c10.1,4.8,19.8,10.3,28.9,16.7c15.9,11.2,28.1,25.2,33.1,44.5
			c0,5.3,0,10.7,0,16c-2.9,6.2-4.6,13-8.5,18.8c-10.9,16.3-26.4,27-43.2,36.1c-31.1,16.7-64.7,26.9-98.8,35.1
			c-76.8,18.4-155,26.1-233.8,29.1c-2.2,0.1-4.6-0.9-6.6,0.9c-33,0-66,0-99,0c-0.9-1.5-2.4-0.9-3.6-0.9c-27-0.9-53.9-2.5-80.7-4.9
			c-50.9-4.4-101.5-11.5-151.2-23.3c-35.5-8.4-70.3-18.7-102.7-36c-16.7-8.9-32.1-19.5-43-35.7c-4-6-5.8-12.8-8.8-19.2
			c0-5.7,0-11.3,0-17c0.4-0.5,0.9-0.9,1.1-1.5c4-16,14-27.7,26.5-37.7c17.3-13.7,37-22.9,57.4-30.8c37.6-14.5,76.6-23.4,116.1-30.6
			c3.8-0.7,5.1-2.3,6.2-5.7c25.1-75.9,50.4-151.8,75.6-227.7c1-3,2.3-5.9,4-8.6c27.2-45.2,54.5-90.3,81.6-135.6
			c2.9-4.8,6.6-8,11.8-10.2C500.1,220,549,199,597.9,177.9C614.6,170.7,631.3,163.3,648,156z"/>
	</g>
</g>
<g id="シェイプ_4_xA0_画像_1_">
	<g>
		<path class="st1" d="M939,734c0,2.7,0,5.3,0,8c-2.3,4.9-6.3,8.3-10.5,11.5c-22.1,16.8-44.2,33.8-66.2,50.8
			c-3.1,2.4-6.4,4.1-10.2,4.8c-70.2,13.6-140.4,27.3-210.6,41.1c-8.9,1.7-17.9,2.6-26.5,5.8c-3,0-6,0-9,0c-6.1-2.8-9.3-7.8-12-13.8
			c-18.6-42.2-37.3-84.4-56-126.5c-0.7-1.5-0.8-3.6-2.6-4c-5.4-1.4-8.2-5.7-11.4-9.7c0-8.3,0-16.7,0-25c1.6-1.6,1.9-3.7,2.1-5.9
			c1.2-13.8,2.5-27.5,3.7-41.3c4.1-48,8.2-95.9,12.4-143.9c4.2-48,8.5-95.9,12.6-143.9c0.6-6.8,3.3-11.5,9.1-15
			c23.4-13.9,46.7-28,70.1-42.1c2.7,0,5.3,0,8,0c4.5,2.3,8,5.7,11.5,9.2c39.9,39.3,79.8,78.6,119.7,117.8c1.5,1.5,3.2,3,4.5,4.7
			c4.5,5.4,4.6,12.3,0.4,18c-5.5,7.6-13.8,8.6-22.3,2.5c-43.6-31-87.1-61.9-130.6-93c-2.9-2.1-5.3-2.5-8.7-1.4
			c-7.2,2.4-14.6,4.5-22,6.5c-3.1,0.8-3.9,1.8-2.5,5c40,91.7,79.9,183.5,119.6,275.3c1.2,2.8,2.8,3.5,5.6,3.4
			c10.3-0.1,20.7,0,31-0.1c3.2,0,6.3,0.4,9.4,1.3c37.8,10.5,75.6,21.1,113.4,31.5c4.9,1.3,8.7,3.7,12.2,7.3
			c15.6,16.7,31.3,33.2,47.1,49.7C933.5,726.2,936.9,729.6,939,734z"/>
	</g>
</g>
<g id="シェイプ_5_xA0_画像_1_">
	<g>
		<path class="st2" d="M99,705c3-6.8,8.6-9.8,15.4-12.1c51.1-16.9,102.2-34.2,153.3-51.2c3.5-1.2,5.3-3,6.6-6.5
			c26.3-70.3,52.6-140.5,79.3-210.6c6.7-17.6,16.6-33.7,25.1-50.5c20.7-40.6,41.6-81.2,62.2-121.8c2.8-5.5,6.7-9.1,12.4-11.6
			c63.7-27.5,127.3-55.2,190.9-82.8c12.4-5.4,23.7,1.9,22.8,14.6c-0.4,6.2-4.4,9.7-9.5,12.5c-21.4,11.8-42.8,23.7-64.2,35.6
			c-36.2,20.1-72.5,40.2-108.8,60.2c-3.3,1.8-5.2,4.1-6.5,7.6c-48,124.3-96,248.5-143.9,372.9c-2.4,6.3-6.1,11.1-11.5,15.1
			c-56.3,42.4-112.5,84.9-168.7,127.4c-2.5,1.9-5.2,3.4-7.8,5.2c-2.7,0-5.3,0-8,0c-5.1-2.4-8.6-6.4-11.6-11.1
			c-3.5-5.6-7.6-10.9-11.1-16.5c-5.4-8.5-12.2-16.2-16.3-25.5C99,739,99,722,99,705z"/>
	</g>
</g>
<g id="シェイプ_2_xA0_画像_1_">
	<g>
		<path class="st3" d="M752,645c0,2.3,0,4.7,0,7c-2.7,6.1-7.7,9.4-13.7,12c-58.9,25.5-120.4,40.8-184.4,46.2
			c-4.6,0.4-9.5-0.3-13.9,1.8c-16.7,0-33.3,0-50,0c-1.7-0.1-3.3-1.4-5,0c-2,0-4,0-6,0c-0.4-1.4-1.5-1-2.4-1c-21.9-1.5-43.7-4-65.4-8
			c-44.5-8.1-87.6-20.6-128.9-39.1c-5.8-2.6-10.6-5.9-13.2-11.9c0-2.3,0-4.7,0-7c1.9-6.1,5.9-10.1,12-12c2.3,0,4.7,0,7,0
			c0.2,0.2,0.3,0.6,0.6,0.7c67.3,30.9,138.2,46.3,212.1,48.1c58.4,1.4,115.4-7.8,171.2-25.1c20.9-6.5,41.6-13.6,61.1-23.7
			c2.3,0,4.7,0,7,0C746.1,634.9,750.1,638.9,752,645z"/>
	</g>
</g>
<g id="シェイプ_コピー_xA0_画像_1_">
	<g>
		<path class="st3" d="M656,156c5.5,2.6,8.8,7,11.7,12.2C723.3,269.6,779.1,371,834.8,472.4c5.3,9.7,3.5,18.3-4.7,22.8
			c-6.4,3.5-12,1.8-17.6-2.2c-30.8-21.9-61.6-43.7-92.4-65.6c-30.1-21.4-60.3-42.7-90.4-64.2c-2.9-2.1-4.6-2.4-7.3,0.5
			c-8,8.4-8.1,8.2-3,18.4c40,79.9,80,159.9,119.8,239.9c2,4,4.4,5.4,8.6,6.1c44.6,7.9,88.6,18.1,130.5,35.9
			c19.4,8.2,37.9,18,53.2,32.8c9.3,9,16.3,19.3,18.8,32.2c0.1,0.4,0.6,0.7,0.9,1c0,5.3,0,10.7,0,16c-1.3,0.3-1.1,1.6-1.3,2.4
			c-3.3,12.5-10.4,22.5-19.8,31.2c-12.1,11.2-26.1,19.5-40.9,26.5c-38.3,18.1-78.9,28.6-120.2,36.9c-67.1,13.4-135,19.7-203.3,22.1
			c-1.2,0-2.7-0.8-3.5,0.9c-34.7,0-69.3,0-104,0c-0.8-1.7-2.3-0.9-3.5-1c-26-1-51.9-2.6-77.8-4.8c-50.9-4.5-101.5-11.5-151.3-23.3
			c-35.5-8.4-70.3-18.7-102.7-36c-16.7-8.9-32.1-19.6-43-35.7c-4-6-5.8-12.8-8.8-19.2c0-5.7,0-11.3,0-17c3.1-6.5,4.9-13.6,9-19.7
			c10.9-15.9,26.2-26.4,42.7-35.2c33.7-18,70.1-28.5,107.1-37c14.1-3.3,28.3-6.1,42.5-8.7c3.3-0.6,4.7-1.9,5.7-5
			c23.9-72.1,47.9-144.1,71.6-216.2c3.6-11,8.3-21.3,14.3-31.1c25.2-41.5,50.3-83.1,75.2-124.8c3-4.9,6.8-8.2,12.1-10.5
			C516.4,213,581.4,185,646.5,157c0.6-0.2,1-0.7,1.5-1C650.7,156,653.3,156,656,156z M775.4,429.7c0.5,0.3,0.9,0.7,1.3,1
			c0.4-0.8,0.3-1.4-0.5-1.9c-0.4-0.9-0.7-1.9-1.2-2.7c-42.5-77.4-85.1-154.7-127.5-232.1c-2-3.6-3.6-3.1-6.5-1.9
			c-57.7,24.8-115.4,49.6-173.1,74.3c-2.6,1.1-4.3,2.8-5.8,5.1c-25.8,42.9-51.6,85.8-77.5,128.7c-1.4,2.3-2.5,4.7-3.3,7.2
			c-5.1,15.5-10.2,30.9-15.4,46.4c-21,63.2-42,126.4-62.9,189.7c-2.3,7-6.5,11.3-13.9,12.6c-12.6,2.2-25.2,4.4-37.8,7.1
			c-36.2,7.6-71.8,17-105.4,32.9c-14.3,6.8-28.2,14.5-38.6,26.9c-8.5,10.1-8.4,19-0.1,29.2c6.2,7.6,14,13.2,22.4,18.2
			c26.3,15.6,55,25,84.3,32.8c77.4,20.4,156.4,28.5,236.1,31.7c71.9,2.9,143.6,0.9,215.1-6.7c44.4-4.7,88.5-11.4,131.8-22.2
			c30.1-7.5,59.6-16.5,87.2-31c9.3-4.9,18.1-10.5,25.8-17.8c14.3-13.6,14.4-25.6,0.2-39.2c-3.5-3.3-7.3-6.4-11.3-9.1
			c-20.5-13.8-43.3-22.5-66.6-29.9c-32.7-10.5-66.2-17.7-100-23.1c-6.7-1.1-11.6-4-14.8-10.3c-44.7-89.5-89.4-179-134.2-268.5
			c-3.9-7.9-3-13.6,3.3-19.9c8.3-8.4,16.7-16.8,25.1-25.1c7.6-7.6,14.2-8.1,23.1-1.9c13.9,9.8,27.7,19.6,41.6,29.4
			C709.3,383,742.4,406.4,775.4,429.7z"/>
	</g>
</g>
<g id="シェイプ_3__x2B__シェイプ_6_コピー__x2B__シェイプ_6_xA0_画像_1_">
	<g>
		<path class="st4" d="M509,625c2.7,0,5.3,0,8,0c19,9.4,38,18.8,56.9,28.2c3.2,1.6,6.7,3,8.3,6.7c-9.5,5.4-19.3,10.5-28.3,16.9
			c-0.3,0.1-0.6,0.1-0.9,0.1c-12.7-6.4-25.4-12.8-38.1-19.3c-1.7-0.9-3.2-0.4-4.7,0.3c-12.7,6.4-25.5,12.8-38.3,19.1
			c-0.3,0-0.6,0-0.9,0c-9.4-5.2-18.9-10.3-28.3-15.5c1.3-4.2,4.8-6.1,8.4-7.9C470.5,644.1,489.7,634.6,509,625z"/>
		<path class="st5" d="M554,676.8c8.9-6.4,18.7-11.5,28.3-16.9c1.9,1.2,1.3,3.7,2.7,5.1c0,21.3,0,42.7,0,64
			c-2.7,5.9-7.5,9.2-13.2,11.9c-16.6,7.9-33.1,16.1-49.6,24.2c-1.6,0.8-3.1,2-5,1.9c-0.9-0.1-1.6,0.2-2.2,0.9c-0.7,0-1.3,0-2,0
			c0-10.6,0-21.2,0-31.8c13-6.4,26-12.8,39-19.1c2.3-1.1,3-2.6,3-5.1c-0.1-10.3,0-20.7-0.1-31C555,679.5,555.3,678,554,676.8z"/>
		<path class="st6" d="M513,736.2c0,10.6,0,21.2,0,31.8c-1.3,0-2.7,0-4,0c-18.2-9-36.4-18.2-54.8-27c-5.7-2.8-10.6-6-13.2-12
			c0-21.7,0-43.3,0-65c0.6-0.8,1.2-1.6,1.8-2.4c9.4,5.2,18.9,10.3,28.3,15.5c0,11.7,0,23.3-0.2,35c0,2.5,0.7,3.9,3,5.1
			C487,723.4,500,729.8,513,736.2z"/>
		<path class="st7" d="M513,736.2c-13-6.4-26-12.8-39.1-19.1c-2.3-1.1-3-2.6-3-5.1c0.1-11.7,0.1-23.3,0.2-35c0.3,0,0.6,0,0.9,0
			c0.4,0.5,0.8,1.2,1.3,1.5c12.4,6.8,24.8,13.5,37.2,20.2c2.3,1.3,4,0.4,5.9-0.7c12.2-7.1,24.4-14.1,36.7-21.2
			c0.3,0,0.6-0.1,0.9-0.1c1.2,1.2,1,2.8,1,4.2c0,10.3,0,20.7,0.1,31c0,2.4-0.6,3.9-3,5.1C539,723.4,526,729.8,513,736.2z"/>
		<path class="st8" d="M553.1,676.9c-12.2,7-24.5,14-36.7,21.2c-2,1.2-3.6,2-5.9,0.7c-12.4-6.8-24.8-13.5-37.2-20.2
			c-0.5-0.3-0.9-1-1.3-1.5c12.8-6.4,25.5-12.7,38.3-19.1c1.5-0.8,3-1.2,4.7-0.3C527.7,664.1,540.4,670.5,553.1,676.9z"/>
	</g>
</g>
</svg>
