<svg xmlns="http://www.w3.org/2000/svg" xmlns:xlink="http://www.w3.org/1999/xlink" viewBox="0 0 1536 300"><defs><style>.a{fill:url(#a);}.b{clip-path:url(#c);}.c{fill:url(#d);}</style><linearGradient id="a" x1="7.28" y1="149.21" x2="1525.42" y2="149.21" gradientUnits="userSpaceOnUse"><stop offset="0" stop-color="#381794"/><stop offset="1" stop-color="#d23881"/></linearGradient><clipPath id="c"><path class="a" d="M128.14,129h66.41c5.39,0,10.17,3.37,10.17,9.06a9.1,9.1,0,0,1-5.71,8.42s-2.12.64-2.12,3.63v39.79a9.37,9.37,0,0,1-2.06,6.28c-20.34,26.32-48.45,38.89-81.65,38.89C54.53,235.06,7.28,186.9,7.28,128.57A105.72,105.72,0,0,1,113.18,22.07a107.28,107.28,0,0,1,66.11,22.73,9.11,9.11,0,0,1,3.89,7.78c0,5.39-4.19,10.17-9.57,10.17a11.14,11.14,0,0,1-6-2.09,84.33,84.33,0,0,0-54.44-19.44c-48.16,0-86.75,39.19-86.75,87.35,0,47.86,38.93,87.35,86.79,87.35,26.62,0,47.66-9,64.66-29.32V152.8c0-1.8-.08-4.8,1.41-5.8H128.14c-5.08,0-9.57-3.61-9.57-8.7C118.56,132.61,122.75,129,128.14,129Zm140.3-40.52a23.5,23.5,0,0,1,.9,6.28c7.48-11.67,21.54-18.55,36.2-18.55A79.18,79.18,0,0,1,332.75,81a9.55,9.55,0,0,1,6.58,9.57c0,7.18-6.88,11.07-13.16,9A66.85,66.85,0,0,0,305.7,96c-17.05,0-34.82,9-34.82,27.82v88.54c0,11.37-5.86,20.94-16.93,20.94-5.39,0-10.26-3.89-10.26-9.57a9.15,9.15,0,0,1,5.39-8.67s1.8-.9,1.8-3.89V99.85c0-3-1.84-3.89-1.84-3.89a9.3,9.3,0,0,1-5.56-8.67c0-5.68,4.85-9.57,10.23-9.57C260.89,77.71,266,82.2,268.43,88.48ZM373.88,212.33V99.85a4.07,4.07,0,0,0-2-3.89,9.38,9.38,0,0,1-5.65-8.67c0-5.68,5.16-9.57,10.54-9.57,11.07,0,17.12,9.57,17.12,20.94V211.13c0,3,1.74,3.89,1.74,3.89a9.25,9.25,0,0,1,5.51,8.67c0,5.68-5,9.57-10.33,9.57C379.73,233.27,373.88,223.69,373.88,212.33Zm-7-184.27A13.72,13.72,0,0,1,380.61,14.3c7.48,0,14.06,6,14.06,13.46A13.91,13.91,0,1,1,366.85,28.06Zm73,195.64a9.08,9.08,0,0,1,5.31-8.67s1.72-.9,1.72-3.89V99.85c0-3-1.72-3.89-1.72-3.89a9.24,9.24,0,0,1-5.5-8.67c0-5.68,4.94-9.57,10.32-9.57,10.47,0,15.9,9,16.9,19.74v2.09c10-15.55,26-21.84,42.12-21.84,18.55,0,39.76,5.68,49.93,26.32C569.4,86.39,588.57,77.71,608,77.71c28.12,0,56.86,18.25,56.86,57.14v76.28c0,3,1.75,3.89,1.75,3.89a9.26,9.26,0,0,1,5.51,8.67c0,5.68-5,9.57-10.34,9.57-11.07,0-16.92-9.57-16.92-20.94V134.55c0-26.62-20.86-37.69-38.2-37.69-25.43,0-41.8,14.36-41.8,40.38v86.45c0,5.09-3.62,9.57-9,9.57-5.09,0-9-4.49-9-9.57V134.55c0-28.42-20.85-37.69-38.21-37.69-24.83,0-41.79,16.15-41.79,41v74.49c0,11.37-5.74,20.94-16.81,20.94C444.68,233.27,439.84,229.38,439.84,223.69Zm266.53-68.5c0-43.37,35.6-79,79.27-79,44,0,79.57,35.6,79.57,79A79.42,79.42,0,1,1,706.37,155.19Zm18.85,0a60.58,60.58,0,0,0,121.15,0c0-32.9-27.22-59.83-60.73-59.83C752.74,95.36,725.22,122.29,725.22,155.19Zm180.66,57.14V99.85A4.06,4.06,0,0,0,903.8,96a9.41,9.41,0,0,1-5.68-8.67c0-5.68,4.71-9.57,10.09-9.57,11.07,0,16.67,9.57,16.67,20.94V211.13a4,4,0,0,0,2.18,3.89,9.46,9.46,0,0,1,5.73,8.67c0,5.68-4.78,9.57-10.16,9.57C911.55,233.27,905.88,223.69,905.88,212.33ZM898.72,28.06A13.72,13.72,0,0,1,912.48,14.3c7.48,0,14.06,6,14.06,13.46A13.91,13.91,0,1,1,898.72,28.06Zm97.82,60.43a23.5,23.5,0,0,1,.9,6.28c7.48-11.67,21.54-18.55,36.2-18.55A79.18,79.18,0,0,1,1060.86,81a9.55,9.55,0,0,1,6.58,9.57c0,7.18-6.88,11.07-13.16,9A67.2,67.2,0,0,0,1033.76,96c-17.05,0-34.88,9-34.88,27.82v88.54c0,11.37-5.8,20.94-16.87,20.94-5.39,0-10.23-3.89-10.23-9.57a9.11,9.11,0,0,1,5.35-8.67s1.76-.9,1.76-3.89V99.85c0-3-1.79-3.89-1.79-3.89a9.27,9.27,0,0,1-5.53-8.67c0-5.68,4.86-9.57,10.25-9.57C989,77.71,994.15,82.2,996.54,88.48ZM1110.81,165c3.89,27,25.43,50.59,53.55,50.59,20.94,0,35.9-6.27,45.77-16.14a10.38,10.38,0,0,1,7.48-3c4.79,0,9.57,3.89,9.57,9a9.48,9.48,0,0,1-2.69,6.88c-13.46,14.36-32.91,22.44-60.13,22.44-43.08,0-73-37.09-73-79.57,0-40.68,29.91-79,73-79,43.38,0,73.59,38,73.59,78.94,0,5.68-5.08,9.84-10.17,9.84h-117Zm107.69-19c-3.59-27-26-50.56-54.15-50.56-27.52,0-50.55,23.56-53.55,50.56H1218.5Zm59.23,72A15.13,15.13,0,0,1,1293,202.75,15.32,15.32,0,0,1,1308.25,218,15.13,15.13,0,0,1,1293,233.27,15,15,0,0,1,1277.74,218ZM1384.53,87.29a9.85,9.85,0,0,1-6.12,8.67,4.09,4.09,0,0,0-2.53,3.89V244.93c0,25.73-14.22,39.19-38.15,39.19-5.39,0-9.65-3.83-9.65-9.21A8.69,8.69,0,0,1,1337,266h3c11.37,0,17.92-10,17.92-21.67V98.65c0-11.37,5.55-20.94,16.62-20.94C1379.88,77.71,1384.53,81.6,1384.53,87.29Zm-29.31-58.93c0-7.48,6.28-14.06,13.76-14.06A13.79,13.79,0,0,1,1383,28.06c0,8.08-6,14.36-14.06,14.36A14,14,0,0,1,1355.21,28.36Zm114,206.41c-14.66,0-32-6-44.27-14.06a9.55,9.55,0,0,1-4.19-8.08c0-6.88,8.08-12.26,16.45-6.58,8.67,6.28,20.64,9.57,33.21,9.57,18.55,0,35.6-9,35.6-21.24,0-15.26-18.85-21.84-35.9-28.72-19.74-7.78-50-20.64-50-47.56,0-23.93,24.83-41.88,52.65-41.88,16.15,0,31.41,5.68,42.18,14.36a10.91,10.91,0,0,1,3.89,8.08c0,6.88-8.67,12.26-15.86,6.88a49.7,49.7,0,0,0-30.21-10.17c-17.95,0-33.5,10.47-33.5,23,0,14.36,21.24,22.44,35.6,28.12,22.14,9,50.56,22.74,50.56,47.86C1525.42,224,1492.52,234.76,1469.18,234.76Z"/></clipPath><linearGradient id="d" x1="-0.12" y1="150" x2="1535.88" y2="150" xlink:href="#a"/></defs><title>logo</title><path class="a" d="M128.14,129h66.41c5.39,0,10.17,3.37,10.17,9.06a9.1,9.1,0,0,1-5.71,8.42s-2.12.64-2.12,3.63v39.79a9.37,9.37,0,0,1-2.06,6.28c-20.34,26.32-48.45,38.89-81.65,38.89C54.53,235.06,7.28,186.9,7.28,128.57A105.72,105.72,0,0,1,113.18,22.07a107.28,107.28,0,0,1,66.11,22.73,9.11,9.11,0,0,1,3.89,7.78c0,5.39-4.19,10.17-9.57,10.17a11.14,11.14,0,0,1-6-2.09,84.33,84.33,0,0,0-54.44-19.44c-48.16,0-86.75,39.19-86.75,87.35,0,47.86,38.93,87.35,86.79,87.35,26.62,0,47.66-9,64.66-29.32V152.8c0-1.8-.08-4.8,1.41-5.8H128.14c-5.08,0-9.57-3.61-9.57-8.7C118.56,132.61,122.75,129,128.14,129Zm140.3-40.52a23.5,23.5,0,0,1,.9,6.28c7.48-11.67,21.54-18.55,36.2-18.55A79.18,79.18,0,0,1,332.75,81a9.55,9.55,0,0,1,6.58,9.57c0,7.18-6.88,11.07-13.16,9A66.85,66.85,0,0,0,305.7,96c-17.05,0-34.82,9-34.82,27.82v88.54c0,11.37-5.86,20.94-16.93,20.94-5.39,0-10.26-3.89-10.26-9.57a9.15,9.15,0,0,1,5.39-8.67s1.8-.9,1.8-3.89V99.85c0-3-1.84-3.89-1.84-3.89a9.3,9.3,0,0,1-5.56-8.67c0-5.68,4.85-9.57,10.23-9.57C260.89,77.71,266,82.2,268.43,88.48ZM373.88,212.33V99.85a4.07,4.07,0,0,0-2-3.89,9.38,9.38,0,0,1-5.65-8.67c0-5.68,5.16-9.57,10.54-9.57,11.07,0,17.12,9.57,17.12,20.94V211.13c0,3,1.74,3.89,1.74,3.89a9.25,9.25,0,0,1,5.51,8.67c0,5.68-5,9.57-10.33,9.57C379.73,233.27,373.88,223.69,373.88,212.33Zm-7-184.27A13.72,13.72,0,0,1,380.61,14.3c7.48,0,14.06,6,14.06,13.46A13.91,13.91,0,1,1,366.85,28.06Zm73,195.64a9.08,9.08,0,0,1,5.31-8.67s1.72-.9,1.72-3.89V99.85c0-3-1.72-3.89-1.72-3.89a9.24,9.24,0,0,1-5.5-8.67c0-5.68,4.94-9.57,10.32-9.57,10.47,0,15.9,9,16.9,19.74v2.09c10-15.55,26-21.84,42.12-21.84,18.55,0,39.76,5.68,49.93,26.32C569.4,86.39,588.57,77.71,608,77.71c28.12,0,56.86,18.25,56.86,57.14v76.28c0,3,1.75,3.89,1.75,3.89a9.26,9.26,0,0,1,5.51,8.67c0,5.68-5,9.57-10.34,9.57-11.07,0-16.92-9.57-16.92-20.94V134.55c0-26.62-20.86-37.69-38.2-37.69-25.43,0-41.8,14.36-41.8,40.38v86.45c0,5.09-3.62,9.57-9,9.57-5.09,0-9-4.49-9-9.57V134.55c0-28.42-20.85-37.69-38.21-37.69-24.83,0-41.79,16.15-41.79,41v74.49c0,11.37-5.74,20.94-16.81,20.94C444.68,233.27,439.84,229.38,439.84,223.69Zm266.53-68.5c0-43.37,35.6-79,79.27-79,44,0,79.57,35.6,79.57,79A79.42,79.42,0,1,1,706.37,155.19Zm18.85,0a60.58,60.58,0,0,0,121.15,0c0-32.9-27.22-59.83-60.73-59.83C752.74,95.36,725.22,122.29,725.22,155.19Zm180.66,57.14V99.85A4.06,4.06,0,0,0,903.8,96a9.41,9.41,0,0,1-5.68-8.67c0-5.68,4.71-9.57,10.09-9.57,11.07,0,16.67,9.57,16.67,20.94V211.13a4,4,0,0,0,2.18,3.89,9.46,9.46,0,0,1,5.73,8.67c0,5.68-4.78,9.57-10.16,9.57C911.55,233.27,905.88,223.69,905.88,212.33ZM898.72,28.06A13.72,13.72,0,0,1,912.48,14.3c7.48,0,14.06,6,14.06,13.46A13.91,13.91,0,1,1,898.72,28.06Zm97.82,60.43a23.5,23.5,0,0,1,.9,6.28c7.48-11.67,21.54-18.55,36.2-18.55A79.18,79.18,0,0,1,1060.86,81a9.55,9.55,0,0,1,6.58,9.57c0,7.18-6.88,11.07-13.16,9A67.2,67.2,0,0,0,1033.76,96c-17.05,0-34.88,9-34.88,27.82v88.54c0,11.37-5.8,20.94-16.87,20.94-5.39,0-10.23-3.89-10.23-9.57a9.11,9.11,0,0,1,5.35-8.67s1.76-.9,1.76-3.89V99.85c0-3-1.79-3.89-1.79-3.89a9.27,9.27,0,0,1-5.53-8.67c0-5.68,4.86-9.57,10.25-9.57C989,77.71,994.15,82.2,996.54,88.48ZM1110.81,165c3.89,27,25.43,50.59,53.55,50.59,20.94,0,35.9-6.27,45.77-16.14a10.38,10.38,0,0,1,7.48-3c4.79,0,9.57,3.89,9.57,9a9.48,9.48,0,0,1-2.69,6.88c-13.46,14.36-32.91,22.44-60.13,22.44-43.08,0-73-37.09-73-79.57,0-40.68,29.91-79,73-79,43.38,0,73.59,38,73.59,78.94,0,5.68-5.08,9.84-10.17,9.84h-117Zm107.69-19c-3.59-27-26-50.56-54.15-50.56-27.52,0-50.55,23.56-53.55,50.56H1218.5Zm59.23,72A15.13,15.13,0,0,1,1293,202.75,15.32,15.32,0,0,1,1308.25,218,15.13,15.13,0,0,1,1293,233.27,15,15,0,0,1,1277.74,218ZM1384.53,87.29a9.85,9.85,0,0,1-6.12,8.67,4.09,4.09,0,0,0-2.53,3.89V244.93c0,25.73-14.22,39.19-38.15,39.19-5.39,0-9.65-3.83-9.65-9.21A8.69,8.69,0,0,1,1337,266h3c11.37,0,17.92-10,17.92-21.67V98.65c0-11.37,5.55-20.94,16.62-20.94C1379.88,77.71,1384.53,81.6,1384.53,87.29Zm-29.31-58.93c0-7.48,6.28-14.06,13.76-14.06A13.79,13.79,0,0,1,1383,28.06c0,8.08-6,14.36-14.06,14.36A14,14,0,0,1,1355.21,28.36Zm114,206.41c-14.66,0-32-6-44.27-14.06a9.55,9.55,0,0,1-4.19-8.08c0-6.88,8.08-12.26,16.45-6.58,8.67,6.28,20.64,9.57,33.21,9.57,18.55,0,35.6-9,35.6-21.24,0-15.26-18.85-21.84-35.9-28.72-19.74-7.78-50-20.64-50-47.56,0-23.93,24.83-41.88,52.65-41.88,16.15,0,31.41,5.68,42.18,14.36a10.91,10.91,0,0,1,3.89,8.08c0,6.88-8.67,12.26-15.86,6.88a49.7,49.7,0,0,0-30.21-10.17c-17.95,0-33.5,10.47-33.5,23,0,14.36,21.24,22.44,35.6,28.12,22.14,9,50.56,22.74,50.56,47.86C1525.42,224,1492.52,234.76,1469.18,234.76Z"/><g class="b"><rect class="c" x="-0.12" width="1536" height="300"/></g></svg>